<svg xmlns="http://www.w3.org/2000/svg" viewBox="0 0 65.83 54.54"><defs><style>.cls-1{fill:#fcfcfc;}</style></defs><title>返回图标</title><g id="图层_2" data-name="图层 2"><g id="图层_1-2" data-name="图层 1"><path class="cls-1" d="M64,37.06A27.31,27.31,0,0,0,48.34,1.81,27,27,0,0,0,38.62,0,27.35,27.35,0,0,0,13.83,15.8l-.06.15L12.58,19a27.23,27.23,0,0,0,.13,17L0,41.67,28.76,52.73A27.31,27.31,0,0,0,64,37.06M46.54,6.47a22.28,22.28,0,1,1-16,41.58L13.06,41.33,32,32.9a7.89,7.89,0,1,0-2-4.57L17.31,34a22.26,22.26,0,0,1,0-13.37l1.08-2.77A22.31,22.31,0,0,1,46.54,6.47M35.21,28.76a2.88,2.88,0,1,1,1.6,1.52,2.86,2.86,0,0,1-1.6-1.52"/></g></g></svg>