<svg xmlns="http://www.w3.org/2000/svg" viewBox="0 0 169.45 205.3"><defs><style>.cls-1{fill:#fcfcfc;}</style></defs><title>文字录入图标</title><g id="图层_2" data-name="图层 2"><g id="图层_1-2" data-name="图层 1"><path class="cls-1" d="M83.7,205.3c-22.06,0-43.13-8.92-59.32-25.11A82.19,82.19,0,0,1,0,119C.74,96.39,10.26,74.81,26.87,58.2L85.07,0,142.8,57.73c16.59,16.59,26,38.09,26.63,60.55a82.45,82.45,0,0,1-24.54,60.93C128.05,196,106.32,205.3,83.7,205.3Zm1.37-185-48,48C7.82,97.57,6.73,142.23,34.54,170c13.47,13.48,30.93,20.9,49.16,20.9,18.79,0,36.91-7.77,51-21.88a68.25,68.25,0,0,0,20.34-50.4c-.49-18.76-8.45-36.8-22.43-50.77Z"/><path class="cls-1" d="M109.29,118.27l-12-7.39c-.42.63-1.61,2.74-3.18,5.33C94,98,93.71,78.79,93.43,62.12l-14.36.31c.12,7.31.24,15.16.35,23.18-1.39-2.25-2.52-4-3.14-4.88l-12,8c7,10.48,14.46,24.58,15.47,30.7.14,18.08.14,34.73-.12,46,0,0,5.05,14.32,7.48,14.32S94,164.58,94,164.58c.09-3.94.15-7.72.18-14.72h.27C94.46,143.86,103.55,126.91,109.29,118.27Z"/></g></g></svg>